<?xml version="1.0" encoding="utf-8"?>
<!-- Generator: Adobe Illustrator 28.3.0, SVG Export Plug-In . SVG Version: 6.00 Build 0)  -->
<svg version="1.1" id="Capa_1" xmlns="http://www.w3.org/2000/svg" xmlns:xlink="http://www.w3.org/1999/xlink" x="0px" y="0px"
	 viewBox="0 0 32 32" style="enable-background:new 0 0 32 32;" xml:space="preserve">
<style type="text/css">
	.st0{fill:#FFFFFF;}
</style>
<g>
	<polygon class="st0" points="1.1,20.8 15.9,2.7 15.9,9.9 7.1,20.9 	"/>
	<polygon class="st0" points="30.6,20.8 15.9,2.7 15.9,9.9 24.4,20.9 	"/>
	<g>
		<g>
			<path class="st0" d="M1,22.4v-0.1h0.1h3.3h0.1v0.1v0.8v0.1l-0.1,0.1H2.3v0.8H4h0.1v0.1V25v0.1H4H2.3V26h2.2
				c0.1,0,0.1,0.1,0.1,0.2V27c0,0,0,0,0,0.1s-0.1,0.1-0.1,0.1H1.1H1v-0.1V22.4z"/>
			<path class="st0" d="M6.6,25.5l0.1,0.1c0.1,0.1,0.1,0.1,0.2,0.2C7,25.9,7.1,26,7.3,26c0.1,0,0.2,0.1,0.3,0.1c0.1,0,0.2,0,0.3,0
				C8,26,8,26,8.1,25.9l0.1-0.1c0-0.1,0-0.1,0-0.2s0-0.1-0.1-0.2S8,25.3,7.9,25.3c-0.1,0-0.2-0.1-0.2-0.1c-0.1,0-0.2-0.1-0.2-0.1
				C7.2,25,7,24.9,6.8,24.8s-0.4-0.2-0.5-0.4C6.2,24.3,6.1,24.2,6,24s-0.1-0.3-0.1-0.5s0-0.4,0.1-0.6s0.2-0.3,0.4-0.4
				c0.2-0.1,0.3-0.2,0.6-0.3c0.2-0.1,0.5-0.1,0.7-0.1s0.4,0,0.6,0.1c0.2,0,0.4,0.1,0.5,0.2c0.1,0,0.1,0.1,0.2,0.1
				c0.1,0,0.1,0.1,0.2,0.1c0.1,0,0.1,0.1,0.1,0.1v0.1v0.1c0,0,0,0.1-0.1,0.1l-0.5,0.5l-0.1,0.1H8.5c0,0-0.1,0-0.1-0.1l0,0l-0.1-0.1
				c-0.1,0-0.1-0.1-0.2-0.1c-0.1,0-0.1-0.1-0.2-0.1s-0.1,0-0.2,0s-0.1,0-0.2,0s-0.1,0-0.2,0.1l-0.1,0.1c0,0,0,0.1,0,0.2s0,0.1,0,0.2
				l0.1,0.1c0.1,0,0.1,0.1,0.2,0.1c0.2,0,0.3,0,0.4,0c0.2,0.1,0.5,0.2,0.6,0.2c0.2,0.1,0.4,0.2,0.5,0.3c0.1,0.1,0.3,0.3,0.3,0.4
				c0.1,0.2,0.1,0.4,0.1,0.6s0,0.5-0.1,0.7s-0.2,0.4-0.4,0.5S8.5,26.9,8.3,27c-0.2,0.1-0.5,0.1-0.8,0.1S7,27.1,6.7,27
				c-0.2-0.1-0.5-0.2-0.7-0.4c-0.1-0.1-0.2-0.1-0.2-0.2c-0.1-0.1-0.1-0.1-0.1-0.1l0,0l0,0l0,0l0,0l0,0c-0.1-0.1-0.1-0.1-0.1-0.1
				s0-0.1,0.1-0.1l0.6-0.5h0.1C6.5,25.5,6.5,25.5,6.6,25.5C6.5,25.5,6.5,25.5,6.6,25.5z"/>
			<path class="st0" d="M11.4,25.5l0.1,0.1c0.1,0.1,0.1,0.1,0.2,0.2c0.1,0.1,0.2,0.1,0.3,0.2c0.1,0,0.2,0.1,0.3,0.1s0.2,0,0.3,0
				s0.1-0.1,0.2-0.1l0.1-0.1c0-0.1,0-0.1,0-0.2s0-0.1-0.1-0.2s-0.1-0.1-0.2-0.1c-0.1,0-0.2-0.1-0.2-0.1c-0.1,0-0.2-0.1-0.2-0.1
				c-0.3-0.1-0.5-0.2-0.7-0.3c-0.2-0.1-0.4-0.2-0.5-0.4c-0.1-0.1-0.2-0.3-0.3-0.4c-0.1-0.2-0.1-0.3-0.1-0.5s0-0.4,0.1-0.6
				s0.2-0.3,0.4-0.4s0.3-0.2,0.6-0.3c0.2-0.1,0.5-0.1,0.7-0.1s0.4,0,0.6,0.1c0.2,0,0.4,0.1,0.5,0.2c0.1,0,0.1,0.1,0.2,0.1
				c0.1,0,0.1,0.1,0.2,0.1c0.1,0,0.1,0.1,0.1,0.1v0.1V23c0,0,0,0.1-0.1,0.1l-0.5,0.5l-0.1,0.1h-0.1c0,0-0.1,0-0.1-0.1l0,0L13,23.5
				c-0.1,0-0.1-0.1-0.2-0.1c-0.1,0-0.1-0.1-0.2-0.1c-0.1,0-0.1,0-0.2,0c-0.1,0-0.1,0-0.2,0c-0.1,0-0.1,0-0.2,0.1l-0.1,0.1
				c0,0,0,0.1,0,0.2s0,0.1,0,0.2L12,24c0.1,0,0.1,0.1,0.2,0.1c0.1,0,0.2,0.1,0.3,0.1c0.2,0.1,0.5,0.2,0.6,0.2
				c0.2,0.1,0.4,0.2,0.5,0.3c0.1,0.1,0.3,0.3,0.3,0.4c0.1,0.2,0.1,0.4,0.1,0.6s0,0.5-0.1,0.7s-0.2,0.4-0.4,0.5s-0.4,0.2-0.6,0.3
				c-0.2,0.1-0.5,0.1-0.8,0.1s-0.5,0-0.8-0.1c-0.2-0.1-0.5-0.2-0.7-0.4c-0.1-0.1-0.2-0.1-0.2-0.2c-0.1-0.1-0.1-0.1-0.1-0.1l0,0l0,0
				l0,0l0,0l0,0c-0.1-0.1-0.1-0.1-0.1-0.1s0-0.1,0.1-0.1l0.6-0.5H11C11.3,25.5,11.3,25.5,11.4,25.5L11.4,25.5z"/>
			<path class="st0" d="M17.1,22.3L17.1,22.3L17.1,22.3c0.1-0.1,0.1-0.1,0.1-0.1s0,0,0.1,0h0.9h0.1c0,0,0,0,0.1,0.1l0.1,0.2l1.7,4.5
				v0.1h-0.1h-1c-0.1,0-0.1,0-0.1,0s0-0.1-0.1-0.1c0-0.1-0.1-0.2-0.1-0.3s-0.1-0.2-0.1-0.3h-1.8c0,0.1-0.1,0.2-0.1,0.3
				c0,0.1-0.1,0.2-0.1,0.3c0,0.1-0.1,0.1-0.2,0.1h-1h-0.1V27L17.1,22.3z M17.7,23.8c0,0.1-0.1,0.2-0.1,0.4c0,0.1-0.1,0.3-0.1,0.4
				s-0.1,0.3-0.1,0.4s-0.1,0.3-0.1,0.4h1L17.7,23.8z"/>
			<path class="st0" d="M21,22.4v-0.1h0.1h3.6h0.1c0,0,0,0.1,0.1,0.1v0.8v0.1l-0.1,0.1h-1.1V27v0.1h-0.1h-1h-0.1V27v-3.6h-1.1h-0.1
				v-0.1v-0.9H21z"/>
			<path class="st0" d="M25.9,24.7c0-0.2,0-0.5,0.1-0.7s0.1-0.4,0.3-0.6c0.1-0.2,0.2-0.4,0.4-0.5c0.2-0.2,0.3-0.3,0.5-0.4
				s0.4-0.2,0.6-0.3c0.2-0.1,0.4-0.1,0.7-0.1c0.2,0,0.5,0,0.7,0.1s0.4,0.1,0.6,0.3c0.2,0.1,0.4,0.2,0.5,0.4c0.2,0.2,0.3,0.3,0.4,0.5
				s0.2,0.4,0.3,0.6c0.1,0.2,0.1,0.4,0.1,0.7c0,0.2,0,0.5-0.1,0.7s-0.1,0.4-0.3,0.6c-0.1,0.2-0.2,0.4-0.4,0.5
				c-0.2,0.2-0.3,0.3-0.5,0.4s-0.4,0.2-0.6,0.3c-0.2,0.1-0.4,0.1-0.7,0.1c-0.2,0-0.5,0-0.7-0.1s-0.4-0.1-0.6-0.3
				c-0.2-0.1-0.4-0.2-0.5-0.4c-0.2-0.2-0.3-0.3-0.4-0.5s-0.2-0.4-0.3-0.6C26,25.1,25.9,24.9,25.9,24.7z M27.2,24.7
				c0,0.2,0,0.4,0.1,0.5c0.1,0.2,0.1,0.3,0.3,0.4c0.1,0.1,0.2,0.2,0.4,0.3c0.2,0.1,0.3,0.1,0.5,0.1s0.4,0,0.5-0.1
				c0.2-0.1,0.3-0.2,0.4-0.3c0.1-0.1,0.2-0.3,0.3-0.4c0.1-0.2,0.1-0.3,0.1-0.5s0-0.4-0.1-0.5c-0.1-0.2-0.1-0.3-0.3-0.4
				c-0.1-0.1-0.2-0.2-0.4-0.3c-0.2-0.1-0.3-0.1-0.5-0.1s-0.4,0-0.5,0.1c-0.2,0.1-0.3,0.2-0.4,0.3c-0.1,0.1-0.2,0.3-0.3,0.4
				C27.3,24.3,27.2,24.5,27.2,24.7z"/>
		</g>
	</g>
	<polygon class="st0" points="24.3,20.9 15.9,10.3 7.3,20.9 11,20.2 15.1,15.1 15.1,20.9 16.6,20.9 16.6,15.1 20.6,20.2 	"/>
</g>
</svg>
