<?xml version="1.0" encoding="utf-8"?>
<!-- Generator: Adobe Illustrator 28.2.0, SVG Export Plug-In . SVG Version: 6.00 Build 0)  -->
<svg version="1.1" id="Capa_1" xmlns="http://www.w3.org/2000/svg" xmlns:xlink="http://www.w3.org/1999/xlink" x="0px" y="0px"
	 viewBox="0 0 32 32" style="enable-background:new 0 0 32 32;" xml:space="preserve">
<style type="text/css">
	.st0{fill:#FFFFFF;}
</style>
<path class="st0" d="M30.9,9.9H1.1C0.5,9.9,0,9.4,0,8.8V3.6C0,3,0.5,2.5,1.1,2.5h29.8C31.5,2.5,32,3,32,3.6v5.2
	C32,9.4,31.5,9.9,30.9,9.9z"/>
<path class="st0" d="M30.9,19.7H1.1c-0.6,0-1.1-0.5-1.1-1.1v-5.2c0-0.6,0.5-1.1,1.1-1.1h29.8c0.6,0,1.1,0.5,1.1,1.1v5.2
	C32,19.2,31.5,19.7,30.9,19.7z"/>
<path class="st0" d="M30.9,29.5H1.1C0.5,29.5,0,29,0,28.4v-5.2c0-0.6,0.5-1.1,1.1-1.1h29.8c0.6,0,1.1,0.5,1.1,1.1v5.2
	C32,29,31.5,29.5,30.9,29.5z"/>
</svg>
