<?xml version="1.0" encoding="utf-8"?>
<!-- Generator: Adobe Illustrator 28.3.0, SVG Export Plug-In . SVG Version: 6.00 Build 0)  -->
<svg version="1.1" id="Capa_1" xmlns="http://www.w3.org/2000/svg" xmlns:xlink="http://www.w3.org/1999/xlink" x="0px" y="0px"
	 viewBox="0 0 32 32" style="enable-background:new 0 0 32 32;" xml:space="preserve">
<style type="text/css">
	.st0{fill:#FFFFFF;}
</style>
<path class="st0" d="M30.9,6.8H1.1C0.5,6.8,0,6.4,0,6.1V3c0-0.4,0.5-0.7,1.1-0.7h29.8C31.5,2.3,32,2.6,32,3v3.1
	C32,6.4,31.5,6.8,30.9,6.8z"/>
<path class="st0" d="M30.9,28.7H1.1C0.5,28.7,0,28.4,0,28v-3.1c0-0.4,0.5-0.7,1.1-0.7h29.8c0.6,0,1.1,0.3,1.1,0.7V28
	C32,28.4,31.5,28.7,30.9,28.7z"/>
<path class="st0" d="M30.9,17.7H1.1c-0.6,0-1.1-0.3-1.1-0.7v-3.1c0-0.4,0.5-0.7,1.1-0.7h29.8c0.6,0,1.1,0.3,1.1,0.7v3.1
	C32,17.4,31.5,17.7,30.9,17.7z"/>
</svg>
