<?xml version="1.0" encoding="utf-8"?>
<!-- Generator: Adobe Illustrator 28.2.0, SVG Export Plug-In . SVG Version: 6.00 Build 0)  -->
<svg version="1.1" id="Capa_1" xmlns="http://www.w3.org/2000/svg" xmlns:xlink="http://www.w3.org/1999/xlink" x="0px" y="0px"
	 viewBox="0 0 257 32" style="enable-background:new 0 0 257 32;" xml:space="preserve">
<style type="text/css">
	.st0{opacity:0.68;}
	.st1{fill:none;stroke:#E9EEE9;stroke-width:2;stroke-miterlimit:10;}
	.st2{opacity:0.68;fill:none;stroke:#E9EEE9;stroke-width:2;stroke-miterlimit:10;}
</style>
<g class="st0">
	<g class="st0">
		<circle class="st1" cx="128.5" cy="15.9" r="14.9"/>
	</g>
	<path class="st1" d="M130.5,16.1c0.9-0.6,1.4-1.6,1.4-2.8c0-1.9-1.6-3.5-3.5-3.5c-1.9,0-3.5,1.6-3.5,3.5c0,1.1,0.6,2.2,1.4,2.8
		c-2.5,0.8-4.4,3.1-4.6,5.9c0,0.2,0,0.3,0.2,0.5c0.1,0.1,0.3,0.2,0.4,0.2h12.1c0.2,0,0.3-0.1,0.4-0.2c0.1-0.1,0.2-0.3,0.2-0.5
		C135,19.2,133.1,16.9,130.5,16.1z M134.8,22.2c-0.1,0.1-0.1,0.1-0.2,0.1h-12.1c-0.1,0-0.2,0-0.2-0.1c-0.1-0.1-0.1-0.1-0.1-0.2
		c0.2-2.7,2.1-4.9,4.6-5.7c0.5,0.3,1.1,0.4,1.7,0.4c0.6,0,1.2-0.2,1.7-0.4c2.5,0.7,4.4,2.9,4.6,5.7
		C134.8,22.1,134.8,22.2,134.8,22.2z M131.6,13.3c0,1.1-0.6,2.1-1.5,2.7c-0.1,0-0.1,0.1-0.2,0.1c-0.1,0-0.2,0.1-0.2,0.1
		c-0.4,0.2-0.8,0.2-1.2,0.2c-0.4,0-0.8-0.1-1.2-0.2c-0.1,0-0.2-0.1-0.2-0.1c-0.1,0-0.1-0.1-0.2-0.1c-0.9-0.6-1.5-1.5-1.5-2.7
		c0-1.7,1.4-3.1,3.1-3.1C130.2,10.2,131.6,11.6,131.6,13.3z"/>
</g>
<line class="st2" x1="144.3" y1="15.9" x2="257.4" y2="15.9"/>
<line class="st2" x1="0" y1="15.9" x2="112.7" y2="15.9"/>
</svg>
