<?xml version="1.0" encoding="UTF-8"?>
<svg id="Capa_1" data-name="Capa 1" xmlns="http://www.w3.org/2000/svg" viewBox="0 0 80 32.18">
  <defs>
    <style>
      .cls-1 {
        stroke-width: 1.4px;
      }

      .cls-1, .cls-2 {
        fill: none;
        stroke: #e9eee9;
        stroke-miterlimit: 10;
      }

      .cls-3 {
        opacity: .68;
      }

      .cls-4 {
        fill: #e9eee9;
        stroke-width: 0px;
      }
    </style>
  </defs>
  <g class="cls-3">
    <g class="cls-3">
      <circle class="cls-1" cx="40.16" cy="16.09" r="15.39"/>
    </g>
    <path class="cls-4" d="M42.26,16.27c.89-.65,1.47-1.7,1.47-2.88,0-1.97-1.6-3.57-3.57-3.57s-3.57,1.6-3.57,3.57c0,1.18.58,2.23,1.47,2.88-2.6.84-4.55,3.19-4.76,6.03-.01.17.05.34.17.47.12.13.29.2.46.2h12.46c.17,0,.34-.07.46-.2.12-.13.18-.3.17-.47-.21-2.84-2.16-5.19-4.76-6.03ZM46.61,22.55c-.06.06-.14.1-.22.1h-12.46c-.08,0-.17-.04-.22-.1-.06-.06-.08-.14-.08-.22.2-2.8,2.19-5.1,4.79-5.83.52.29,1.11.46,1.74.46s1.23-.17,1.74-.46c2.6.72,4.59,3.02,4.79,5.83,0,.08-.02.16-.08.22ZM43.4,13.39c0,1.17-.62,2.19-1.55,2.76-.07.04-.13.08-.2.12-.08.04-.16.08-.24.11-.38.16-.81.25-1.25.25s-.86-.09-1.25-.25c-.08-.03-.16-.07-.24-.11-.07-.04-.14-.08-.2-.12-.93-.57-1.55-1.59-1.55-2.76,0-1.79,1.45-3.24,3.24-3.24s3.24,1.45,3.24,3.24Z"/>
  </g>
  <g class="cls-3">
    <line class="cls-2" y1="18.83" x2="24.77" y2="18.83"/>
  </g>
  <g class="cls-3">
    <line class="cls-2" x1="55.54" y1="18.83" x2="80" y2="18.83"/>
  </g>
</svg>