<?xml version="1.0" encoding="utf-8"?>
<!-- Generator: Adobe Illustrator 28.2.0, SVG Export Plug-In . SVG Version: 6.00 Build 0)  -->
<svg version="1.1" id="Capa_1" xmlns="http://www.w3.org/2000/svg" xmlns:xlink="http://www.w3.org/1999/xlink" x="0px" y="0px"
	 viewBox="0 0 32 32" style="enable-background:new 0 0 32 32;" xml:space="preserve">
<style type="text/css">
	.st0{opacity:0.9;}
	.st1{fill:#D1D1D1;}
</style>
<g class="st0">
	<g>
		<g>
			<g>
				<path class="st1" d="M25.5,31.31H7.05c-1.39,0-2.52-1.13-2.52-2.52V12.98c0-1.39,1.13-2.52,2.52-2.52H25.5
					c1.39,0,2.52,1.13,2.52,2.52v15.82C28.02,30.18,26.89,31.31,25.5,31.31z M7.05,11.41c-0.86,0-1.57,0.7-1.57,1.57v15.82
					c0,0.86,0.7,1.57,1.57,1.57H25.5c0.86,0,1.57-0.7,1.57-1.57V12.98c0-0.86-0.7-1.57-1.57-1.57H7.05z"/>
			</g>
		</g>
		<g>
			<g>
				<path class="st1" d="M23.4,11.19c-0.26,0-0.48-0.21-0.48-0.48V7.97c0-3.53-2.87-6.41-6.41-6.41c-3.53,0-6.41,2.87-6.41,6.41
					v2.75c0,0.26-0.21,0.48-0.48,0.48c-0.26,0-0.48-0.21-0.48-0.48V7.97c0-4.06,3.3-7.36,7.36-7.36c4.06,0,7.36,3.3,7.36,7.36v2.75
					C23.88,10.98,23.66,11.19,23.4,11.19z"/>
			</g>
		</g>
	</g>
	<g>
		<g>
			<path class="st1" d="M16.27,21.84c-1.33,0-2.41-1.08-2.41-2.41c0-1.33,1.08-2.41,2.41-2.41c1.33,0,2.41,1.08,2.41,2.41
				C18.69,20.76,17.6,21.84,16.27,21.84z M16.27,18.03c-0.77,0-1.39,0.62-1.39,1.39c0,0.77,0.62,1.39,1.39,1.39
				c0.77,0,1.39-0.62,1.39-1.39C17.67,18.66,17.04,18.03,16.27,18.03z"/>
		</g>
		<g>
			<rect x="15.14" y="20.82" class="st1" width="2.27" height="4.75"/>
		</g>
	</g>
</g>
</svg>
